<svg width="24.000000" height="24.000000" viewBox="0 0 24 24" fill="none" xmlns="http://www.w3.org/2000/svg" xmlns:xlink="http://www.w3.org/1999/xlink">
	<desc>
			Created with Pixso.
	</desc>
	<defs>
		<clipPath id="clip354_15204">
			<rect id="dashboard 2" width="24.000000" height="24.000000" fill="white" fill-opacity="0"/>
		</clipPath>
	</defs>
	<rect id="dashboard 2" width="24.000000" height="24.000000" fill="#FFFFFF" fill-opacity="0"/>
	<g clip-path="url(#clip354_15204)">
		<path id="Vector" d="M13.81 22L10.17 22C9.95 22 9.73 21.92 9.55 21.77C9.37 21.63 9.25 21.43 9.2 21.21L8.79 19.33C8.25 19.09 7.73 18.79 7.26 18.44L5.42 19.02C5.2 19.09 4.97 19.08 4.75 19C4.54 18.92 4.36 18.77 4.25 18.57L2.42 15.42C2.31 15.22 2.27 14.99 2.3 14.77C2.34 14.54 2.45 14.33 2.62 14.18L4.04 12.88C3.98 12.29 3.98 11.7 4.04 11.11L2.62 9.81C2.45 9.66 2.34 9.45 2.3 9.22C2.27 9 2.31 8.77 2.42 8.57L4.25 5.42C4.36 5.22 4.54 5.07 4.75 4.99C4.96 4.9 5.2 4.9 5.41 4.96L7.25 5.55C7.5 5.37 7.75 5.2 8.01 5.05C8.27 4.91 8.52 4.78 8.79 4.66L9.2 2.78C9.25 2.56 9.37 2.36 9.55 2.22C9.73 2.07 9.95 2 10.17 2L13.81 2C14.04 2 14.26 2.07 14.44 2.22C14.62 2.36 14.74 2.56 14.79 2.78L15.2 4.66C15.75 4.9 16.26 5.2 16.74 5.55L18.58 4.97C18.79 4.9 19.03 4.91 19.24 4.99C19.45 5.07 19.63 5.22 19.74 5.42L21.56 8.57C21.8 8.98 21.72 9.5 21.37 9.81L19.95 11.11C20.01 11.7 20.01 12.29 19.95 12.88L21.37 14.18C21.72 14.5 21.8 15.02 21.56 15.42L19.74 18.58C19.63 18.77 19.45 18.93 19.24 19.01C19.03 19.09 18.79 19.1 18.58 19.03L16.74 18.44C16.26 18.8 15.75 19.09 15.2 19.33L14.79 21.21C14.74 21.43 14.62 21.63 14.44 21.77C14.26 21.92 14.04 22 13.81 22ZM7.62 16.22L8.43 16.82C8.62 16.96 8.81 17.08 9.01 17.2C9.2 17.31 9.39 17.41 9.59 17.5L10.52 17.9L10.98 20L13.01 20L13.47 17.9L14.4 17.49C14.81 17.31 15.19 17.09 15.55 16.83L16.37 16.23L18.42 16.88L19.43 15.12L17.85 13.68L17.96 12.66C18.01 12.22 18.01 11.78 17.96 11.33L17.85 10.32L19.43 8.87L18.42 7.12L16.37 7.77L15.55 7.17C15.19 6.9 14.81 6.68 14.4 6.5L13.47 6.09L13.01 4L10.98 4L10.52 6.09L9.59 6.5C9.18 6.67 8.8 6.9 8.44 7.16L7.62 7.76L5.58 7.11L4.56 8.87L6.14 10.32L6.03 11.33C5.98 11.77 5.98 12.22 6.03 12.66L6.14 13.67L4.56 15.12L5.58 16.87L7.62 16.22ZM11.99 16C10.93 16 9.91 15.57 9.16 14.82C8.41 14.07 7.99 13.06 7.99 12C7.99 10.93 8.41 9.92 9.16 9.17C9.91 8.42 10.93 8 11.99 8C13.05 8 14.07 8.42 14.82 9.17C15.57 9.92 15.99 10.93 15.99 12C15.99 13.06 15.57 14.07 14.82 14.82C14.07 15.57 13.05 16 11.99 16ZM11.99 10C11.6 10 11.22 10.11 10.89 10.33C10.56 10.54 10.31 10.85 10.15 11.21C10 11.57 9.95 11.97 10.03 12.35C10.1 12.74 10.28 13.09 10.55 13.38C10.82 13.66 11.17 13.86 11.55 13.95C11.93 14.03 12.33 14 12.7 13.87C13.06 13.73 13.38 13.49 13.61 13.17C13.84 12.85 13.97 12.48 13.99 12.08L13.99 12.49L13.99 12C13.99 11.46 13.78 10.96 13.41 10.58C13.03 10.21 12.52 10 11.99 10Z" fill="#CCCCCC" fill-opacity="1.000000" fill-rule="nonzero"/>
	</g>
</svg>
