<svg width="60" height="30" viewBox="0 0 60 30" fill="none" xmlns="http://www.w3.org/2000/svg">
<path d="M40.9766 9.33594L38.1641 14.1719L40.9609 20H37.3984L34.9844 14.1094L37.7188 9.33594H40.9766ZM34.8906 9.33594V20H31.7188V9.33594H34.8906ZM41.8281 9.33594H45V15.6719C45 16.1667 45.0781 16.4974 45.2344 16.6641C45.3958 16.8255 45.7109 16.9062 46.1797 16.9062H46.3438V20H45.5C44.3438 20 43.4427 19.6641 42.7969 18.9922C42.151 18.3151 41.8281 17.3776 41.8281 16.1797V9.33594ZM47.2031 20V12.3125C47.2031 11.3594 47.4922 10.5807 48.0703 9.97656C48.6484 9.3724 49.3984 9.07031 50.3203 9.07031C51.4141 9.07031 52.2552 9.57292 52.8438 10.5781C53.2031 10.0365 53.5885 9.65104 54 9.42188C54.4115 9.1875 54.9193 9.07031 55.5234 9.07031C56.4818 9.07031 57.2161 9.3724 57.7266 9.97656C58.237 10.5807 58.4922 11.4505 58.4922 12.5859V20H55.3203V13.0625C55.3203 12.7188 55.2917 12.4922 55.2344 12.3828C55.1823 12.2682 55.0729 12.2109 54.9062 12.2109C54.5938 12.2109 54.4375 12.4766 54.4375 13.0078V20H51.2656V13.0625C51.2656 12.724 51.237 12.4974 51.1797 12.3828C51.1224 12.2682 51.0104 12.2109 50.8438 12.2109C50.5312 12.2109 50.375 12.4948 50.375 13.0625V20H47.2031Z" fill="url(#paint0_linear_1304_2132)"/>
<path d="M15 4V4.0125" stroke="#00b307" strokeWidth="4" stroke-miterlimit="10" stroke-linecap="round" strokeLinejoin="round"/>
<path d="M15 9.625V9.6375" stroke="#00b307" strokeWidth="4" stroke-miterlimit="10" stroke-linecap="round" strokeLinejoin="round"/>
<path d="M15 14.625V14.6375" stroke="#00b307" strokeWidth="4" stroke-miterlimit="10" stroke-linecap="round" strokeLinejoin="round"/>
<path d="M15 19.625V19.6375" stroke="#00b307" strokeWidth="3" stroke-miterlimit="10" stroke-linecap="round" strokeLinejoin="round"/>
<path d="M15 24V24.0125" stroke="#00b307" strokeWidth="2.5" stroke-miterlimit="10" stroke-linecap="round" strokeLinejoin="round"/>
<path d="M15 27.75V27.7625" stroke="#00b307" strokeWidth="2" stroke-miterlimit="10" stroke-linecap="round" strokeLinejoin="round"/>
<path d="M4.375 9.625V9.6375" stroke="#00b307" strokeWidth="4" stroke-miterlimit="10" stroke-linecap="round" strokeLinejoin="round"/>
<path d="M25.625 9.625V9.6375" stroke="#00b307" strokeWidth="4" stroke-miterlimit="10" stroke-linecap="round" strokeLinejoin="round"/>
<path d="M25.625 14.625V14.6375" stroke="#00b307" strokeWidth="3" stroke-miterlimit="10" stroke-linecap="round" strokeLinejoin="round"/>
<path d="M4.375 14.625V14.6375" stroke="#00b307" strokeWidth="3" stroke-miterlimit="10" stroke-linecap="round" strokeLinejoin="round"/>
<path d="M25.625 18.375V18.3875" stroke="#00b307" strokeWidth="2.5" stroke-miterlimit="10" stroke-linecap="round" strokeLinejoin="round"/>
<path d="M25.625 22.125V22.1375" stroke="#00b307" strokeWidth="2" stroke-miterlimit="10" stroke-linecap="round" strokeLinejoin="round"/>
<path d="M4.375 18.375V18.3875" stroke="#00b307" strokeWidth="2.5" stroke-miterlimit="10" stroke-linecap="round" strokeLinejoin="round"/>
<path d="M4.375 22.125V22.1375" stroke="#00b307" strokeWidth="2" stroke-miterlimit="10" stroke-linecap="round" strokeLinejoin="round"/>
<path d="M9.75 12.125V12.1375" stroke="#00b307" strokeWidth="4" stroke-miterlimit="10" stroke-linecap="round" strokeLinejoin="round"/>
<path d="M9.6875 6.875V6.8875" stroke="#00b307" strokeWidth="4" stroke-miterlimit="10" stroke-linecap="round" strokeLinejoin="round"/>
<path d="M20.25 12.125V12.1375" stroke="#00b307" strokeWidth="4" stroke-miterlimit="10" stroke-linecap="round" strokeLinejoin="round"/>
<path d="M20.3125 6.875V6.8875" stroke="#00b307" strokeWidth="4" stroke-miterlimit="10" stroke-linecap="round" strokeLinejoin="round"/>
<path d="M9.75 17.125V17.1375" stroke="#00b307" strokeWidth="3" stroke-miterlimit="10" stroke-linecap="round" strokeLinejoin="round"/>
<path d="M9.75 20.875V20.8875" stroke="#00b307" strokeWidth="2.5" stroke-miterlimit="10" stroke-linecap="round" strokeLinejoin="round"/>
<path d="M9.75 24.625V24.6375" stroke="#00b307" strokeWidth="2" stroke-miterlimit="10" stroke-linecap="round" strokeLinejoin="round"/>
<path d="M20.25 17.125V17.1375" stroke="#00b307" strokeWidth="3" stroke-miterlimit="10" stroke-linecap="round" strokeLinejoin="round"/>
<path d="M20.25 20.875V20.8875" stroke="#00b307" strokeWidth="2.5" stroke-miterlimit="10" stroke-linecap="round" strokeLinejoin="round"/>
<path d="M20.25 24.625V24.6375" stroke="#00b307" strokeWidth="2" stroke-miterlimit="10" stroke-linecap="round" strokeLinejoin="round"/>
<defs>
<linearGradient id="paint0_linear_1304_2132" x1="32.4419" y1="6" x2="60.5694" y2="16.0437" gradientUnits="userSpaceOnUse">
<stop offset="0.330591" stop-color="#000000"/>
<stop offset="0.741792" stop-color="#000000"/>
<stop offset="0.983333" stop-color="#000000"/>
</linearGradient>
</defs>
</svg>
